<svg xmlns="http://www.w3.org/2000/svg" width="64" height="64" viewBox="0 0 16.933 16.933" xmlns:v="https://vecta.io/nano"><path d="M0 0h16.933v16.933H0z"/><path d="M10.05 9.021q0 .606-.229 1.14-.229.529-.626.926-.397.392-.931.621-.529.229-1.135.229-.606 0-1.14-.229-.529-.229-.926-.621-.392-.397-.621-.926-.229-.534-.229-1.14V4.64h1.455v4.381q0 .3.112.565.117.265.316.463.198.198.463.316.27.112.57.112.3 0 .565-.112.27-.117.468-.316.198-.198.31-.463.117-.265.117-.565V4.64h1.46zm2.672 2.397q0 .183-.066.346-.066.158-.183.275-.117.117-.275.183-.158.071-.341.071-.178 0-.341-.071-.158-.066-.28-.183-.117-.117-.188-.275-.066-.163-.066-.346 0-.178.066-.336.071-.158.188-.275.122-.117.28-.183.163-.071.341-.071.183 0 .341.071.158.066.275.183.117.117.183.275.066.158.066.336z" fill="#fff"/></svg>